<?xml version="1.0" encoding="UTF-8"?>
<!DOCTYPE svg PUBLIC "-//W3C//DTD SVG 1.1//EN" "http://www.w3.org/Graphics/SVG/1.1/DTD/svg11.dtd">
<!-- Creator: CorelDRAW 2017 -->
<svg xmlns="http://www.w3.org/2000/svg" xml:space="preserve" width="128mm" height="128mm" version="1.1" style="shape-rendering:geometricPrecision; text-rendering:geometricPrecision; image-rendering:optimizeQuality; fill-rule:evenodd; clip-rule:evenodd"
viewBox="0 0 12800 12800"
 xmlns:xlink="http://www.w3.org/1999/xlink">
 <defs>
  <style type="text/css">
   <![CDATA[
    .fil5 {fill:#FDFEFE}
    .fil4 {fill:#EB6A21}
    .fil1 {fill:#FBFCFD}
    .fil8 {fill:#FBFCFC}
    .fil6 {fill:#F6DB44}
    .fil2 {fill:#D1292E}
    .fil0 {fill:#443428}
    .fil3 {fill:#119EDA}
    .fil7 {fill:#252425}
   ]]>
  </style>
 </defs>
 <g id="图层_x0020_1">
  <metadata id="CorelCorpID_0Corel-Layer"/>
  <path class="fil0" d="M4605 10825c28,66 145,189 195,240 167,172 445,263 698,282 478,35 705,-218 1024,-375 -3,105 -97,353 -135,440 -60,138 -132,259 -212,367 -133,180 -380,422 -719,443 -343,21 -642,-198 -751,-406 -71,-136 -117,-267 -131,-446 -10,-126 0,-374 19,-511l11 -34zm7072 -4149l0 152c-15,32 -21,101 -34,142 -60,196 -201,386 -384,481 -184,95 -293,63 -412,280 -42,77 -83,147 -130,216 -131,192 -313,404 -483,561 -329,304 -606,517 -1023,706 -175,79 -169,69 -186,160 -21,108 -33,210 -32,326 11,275 113,367 208,562 92,189 152,380 143,631 -11,318 -140,612 -357,804 -44,39 -120,86 -179,107 -16,6 -59,18 -71,24 -57,7 -117,22 -176,11 129,-81 289,-155 398,-247 275,-233 366,-581 291,-949 -35,-173 -73,-223 -125,-358 -11,-28 -32,-90 -47,-112 -90,214 -27,294 -249,533 -100,108 -270,260 -436,340 -340,164 -611,125 -975,34l-303 -85c6,57 57,161 84,203 38,60 88,113 132,154 98,91 191,182 300,273 281,235 538,187 921,219l-15 19c-32,4 -81,60 -253,62 -424,3 -820,-240 -1058,-574 -124,-175 -152,-255 -250,-406l-345 -2c-29,57 -62,170 -84,232 -173,478 -319,874 -833,1064 -40,15 -81,26 -125,36 -30,6 -119,16 -136,23l-147 0c-51,-21 -215,-6 -423,-161 -236,-176 -368,-453 -395,-763 -17,-191 11,-356 31,-538 36,-340 -19,-365 -183,-662 -79,-143 -175,-447 -298,-567 -43,-42 -302,-171 -372,-206 -409,-204 -740,-369 -1072,-664 -47,-42 -193,-164 -230,-206l-222 -214c-22,-23 -45,-48 -68,-75 -168,-197 -58,-152 -245,-191 -246,-50 -405,-108 -559,-306 -148,-190 -143,-376 -163,-417l0 -170c29,-61 10,-285 248,-512 145,-138 339,-205 552,-204 252,2 408,92 543,212 51,45 135,134 174,208 32,61 28,78 41,149 11,59 47,80 79,111 40,32 134,95 185,116l-93 -161c0,-17 -69,-185 -82,-225 -187,-566 -295,-1308 -192,-1888 85,-473 274,-945 536,-1325 58,-84 208,-277 277,-349 15,-16 20,-26 36,-42 16,-16 22,-24 36,-41 117,-142 425,-409 570,-516 402,-295 785,-456 1284,-582 140,-35 365,-80 474,-146 10,-6 187,-174 246,-219 50,-38 44,-30 48,-106 10,-197 25,-408 26,-604 -332,-11 -830,-41 -1134,-171 -100,-43 -207,-106 -213,-232 15,-148 285,-237 407,-265 122,-28 474,-74 553,-129l1114 0c62,48 498,105 622,146 102,34 181,82 232,150 21,27 65,84 46,121 -213,419 -1015,266 -1334,408l-5 642c3,19 6,13 39,36 15,10 25,18 41,30 29,20 55,39 82,61 142,112 70,117 164,128 434,53 963,214 1337,399 379,187 738,428 1017,719 25,26 47,44 70,73 74,90 103,111 196,240 310,431 585,977 675,1639 50,368 58,703 -23,1059 -81,357 -200,571 -290,871 80,-19 265,-97 325,-138 111,-76 -26,-142 87,-372 101,-207 251,-380 476,-466 359,-137 770,55 968,355 120,181 110,305 129,343zm-5175 3717c-154,-19 -304,-88 -410,-197 -54,-55 -88,-103 -117,-181 -12,-31 -25,-84 -29,-122 -4,-40 18,-45 75,-71 231,-105 788,-130 1067,-80 8,247 -93,464 -295,566 -59,29 -140,67 -210,78 -8,-73 -38,-261 5,-313 30,-37 106,-26 122,-228 -68,-25 -115,-54 -205,-63 -104,-9 -142,7 -220,40 0,48 11,132 27,171 44,110 153,-13 190,399zm-629 -437c69,237 202,404 424,483 122,43 266,52 396,14 130,-37 211,-96 284,-169 293,-295 44,-288 298,-381 133,-49 383,-112 527,-153l354 -96c-7,65 -51,160 -80,209 -247,419 -855,641 -1337,697 -371,44 -705,2 -1014,-117 -209,-81 -373,-205 -512,-358 -69,-76 -71,-97 -119,-162 49,-9 670,29 778,34zm1128 -636c104,-16 181,-24 280,-50 229,-62 494,-191 711,-291 79,-37 76,-38 118,-13 37,22 69,40 102,65 72,56 110,91 166,168 164,227 128,517 -27,752 -626,956 -2973,1115 -3591,211 -90,-132 -168,-306 -146,-513 11,-107 37,-171 78,-257 16,-35 43,-74 64,-103 11,-15 24,-34 36,-48 19,-25 16,-30 51,-28 202,8 396,201 1119,214 -1,50 -135,194 -135,313 0,48 23,78 2,127 -52,18 -346,-20 -424,-26 -169,-12 -257,-22 -412,24 83,301 385,517 655,634 305,132 723,192 1103,141 586,-79 1447,-376 1488,-1079 -180,7 -362,85 -519,133 -157,48 -351,119 -540,101 14,-132 41,-172 -28,-287 -23,-38 -46,-68 -74,-99 -27,-30 -81,-74 -75,-90zm-3391 1c-170,-96 -281,-158 -442,-267 -225,-154 -605,-433 -796,-612 -98,-92 -273,-271 -319,-380 177,-155 323,-83 467,-302 67,-102 139,-277 178,-401 8,-26 19,-43 28,-67 13,-37 13,-34 41,-56 27,10 118,78 146,99 193,144 194,192 341,393l78 113c55,76 72,92 140,157l301 313c87,103 200,219 285,323 98,119 273,249 400,334l287 195c-4,9 -84,136 -88,139 -39,126 -98,181 -107,391 -7,148 30,298 86,409 117,229 274,363 517,479 489,235 1083,307 1704,215 569,-84 1324,-366 1605,-876 135,-244 121,-544 -44,-773 -54,-74 -119,-134 -194,-183 -28,-18 -54,-27 -79,-47 13,-33 38,-43 57,-63l190 -174c22,-18 40,-38 62,-57 136,-118 325,-286 410,-443 57,-106 109,-217 172,-317 30,-48 167,-214 211,-272 72,-94 144,-179 215,-274 65,-85 98,-192 216,-273 94,-64 228,-107 369,-122 25,33 45,76 66,115 182,327 133,326 461,440 47,16 229,81 258,104 -153,528 -1212,1435 -1804,1621 -10,-134 27,-319 -13,-458 -3,-10 -5,-18 -9,-27 -2,-4 -4,-8 -7,-11 -5,-7 -4,-6 -9,-10 -56,194 -45,366 -49,574 -3,132 -10,297 -40,424 -40,169 -47,71 30,225 62,123 71,250 36,385 -43,168 -129,272 -234,392 -200,227 -542,382 -853,391 -385,11 -694,-201 -1020,-230 -408,-36 -618,209 -893,341 -293,140 -780,96 -1012,-76 -281,-209 -306,-494 -452,-794 -33,-69 -77,-131 -115,-195 -68,-112 -151,-307 -193,-433l-82 -232c-90,-6 -47,56 -275,-37 -83,-34 -152,-78 -230,-110zm3492 -2391c330,-35 670,96 856,340 116,153 103,291 -21,420 -69,71 -233,217 -318,279 -489,353 -1181,528 -1905,334 -151,-40 -300,-98 -434,-168 -100,-52 -295,-164 -372,-230 -41,-35 -130,-106 -153,-151 -103,-204 105,-455 283,-559 308,-181 617,-179 1012,-134 213,24 351,5 544,-39 84,-19 159,-39 242,-56 92,-19 170,-25 266,-35zm-5245 -416c113,-9 210,12 302,48 258,100 444,330 476,616 49,432 -268,745 -662,781 -250,23 -419,-51 -559,-168 -110,-91 -219,-283 -233,-494 -28,-421 301,-752 677,-782zm8962 -490c375,-43 740,260 775,682 35,425 -309,746 -693,776 -687,52 -1020,-777 -582,-1220 111,-112 281,-212 500,-237zm-7109 139c114,-84 977,-278 1166,-318 334,-70 945,-197 1272,-212 443,-20 945,55 1367,116 218,32 435,58 659,81 304,31 426,19 716,21 -25,308 -163,661 -280,907 -64,135 -137,255 -210,380 -15,27 -203,332 -238,355 -13,-36 -35,-75 -50,-112 -60,-145 -68,-182 -179,-292 -96,-96 -275,-185 -411,-221 -399,-104 -733,34 -1099,88 -393,58 -1023,-106 -1416,117 -67,38 -138,92 -176,140 -96,118 -185,268 -210,424 -34,-20 -123,-128 -148,-154 -49,-53 -89,-107 -135,-163 -83,-103 -169,-228 -243,-353 -93,-156 -334,-619 -386,-805zm2599 2320c675,1 1245,-301 1686,-711 139,-129 255,-271 370,-424 274,-364 504,-905 592,-1400 21,-118 3,-96 72,-130 44,-21 90,-38 137,-59 286,-127 305,-226 452,-339 14,70 13,197 13,273 0,953 -328,1867 -995,2452 -965,846 -2640,1151 -3921,632 -197,-80 -378,-165 -537,-274 -86,-59 -157,-114 -228,-178l-198 -208c-244,-310 -444,-656 -598,-1024 -152,-362 -336,-826 -335,-1288l8 -151c19,48 17,68 45,116 132,228 454,360 729,387 25,68 66,148 98,217 118,255 285,591 437,822 178,271 339,471 575,683 416,374 1009,602 1598,603zm-3252 -3631c27,-31 82,-66 128,-88 53,-26 106,-41 177,-31 68,10 239,95 286,132l-591 -13zm3110 -890c243,-33 423,195 449,409 33,268 -171,435 -406,459 -248,26 -445,-179 -456,-407 -12,-255 184,-429 413,-461zm698 -1629c271,-25 490,143 596,269 509,605 284,1496 -414,1646 -137,30 -268,15 -358,-57 -43,-35 -64,-65 -97,-124 -77,-134 -215,-126 -265,-170 -85,-77 -133,-390 -145,-506 -26,-267 12,-547 131,-735 114,-181 264,-296 552,-323zm-3413 1774c449,-10 1428,531 1826,601 -89,-153 -962,-443 -1211,-531 -61,-21 -394,-131 -422,-154 30,-55 117,-122 177,-161 136,-88 321,-148 482,-186l211 -40c20,-2 20,-1 36,-6 14,-4 5,-5 32,-9 -11,-267 15,-523 111,-736 81,-180 226,-362 404,-455 232,-122 468,-93 655,48 360,273 422,880 280,1298 -62,181 -256,346 -438,421 -242,99 -491,59 -682,-63 -263,-168 -206,-304 -387,-463 -1,42 35,143 49,180 143,365 528,521 904,469 56,-8 181,-46 182,-46 13,147 8,386 122,487 22,19 38,26 63,38 16,8 22,10 37,16 3,1 15,6 17,7 2,1 7,4 8,5l8 6c37,-2 216,86 253,106l13 573c-213,77 -532,115 -778,152 -275,42 -509,91 -763,161 -241,67 -480,141 -733,191 -280,56 -556,60 -760,-89 -306,-224 -418,-592 -196,-968 12,-20 9,-21 36,-25l170 -2c75,0 147,5 221,6 286,5 591,28 878,46 201,13 717,46 886,0 -75,-67 -445,-79 -578,-94 -149,-1 -302,-16 -453,-18 -140,-2 -313,-18 -449,-10 -26,-115 -120,-202 -255,-211 -73,-5 -144,6 -209,25 -67,19 -112,47 -168,67 15,-47 65,-129 91,-174 33,-57 67,-110 103,-159 120,-161 212,-177 224,-302 -144,37 -354,331 -421,486 -124,284 -207,230 -260,280 25,13 51,36 65,61 20,35 5,63 -8,94 -27,63 -41,116 -55,190 -84,443 -36,860 91,1275 114,375 278,680 437,1018 52,111 104,219 156,331 -22,-9 -30,-19 -50,-37 -15,-13 -24,-22 -39,-39 -347,-378 -628,-1125 -714,-1611 -120,-676 -44,-1498 278,-2097 203,-377 439,-692 732,-974 119,-115 288,-257 424,-351 244,-170 493,-315 802,-439 1014,-406 2151,-350 3084,97 531,254 1022,651 1359,1122 312,437 610,1162 627,1853 10,410 -33,743 -145,1096 -67,212 -127,356 -239,536 -56,91 -117,211 -193,272 64,-224 157,-442 222,-673 72,-255 108,-500 108,-790 0,-147 -24,-281 -27,-423 -3,-142 32,-271 36,-411 7,-236 -34,-530 -300,-596 -82,126 -749,211 -963,245 -330,53 -708,96 -981,224l7 7c60,57 157,16 237,-2l754 -158c170,-36 350,-60 521,-93 149,-28 365,-64 493,-114 39,24 104,133 127,193 101,259 26,533 -125,737 -410,552 -1448,331 -2075,241 -349,-50 -644,-96 -998,-116 -46,-3 -104,1 -148,-7l-24 -596c361,-191 435,-209 454,-639 111,-10 229,36 459,-15 399,-90 565,-392 641,-807 150,9 345,63 472,107 82,29 327,140 389,191 -4,4 -2,4 -9,9 -1,1 -11,7 -11,7l-151 81c-176,96 -339,177 -524,281 -97,55 -585,340 -599,472 128,-45 338,-186 456,-263 74,-48 145,-97 221,-143 148,-91 590,-353 729,-349 90,3 170,102 212,145 29,30 164,157 176,181 -304,122 -376,-9 -371,235 40,-18 78,-54 127,-78 210,-104 417,31 496,15 -27,-43 -143,-159 -196,-221 -50,-59 -144,-165 -194,-205 -83,-67 -140,-82 -166,-103 48,-119 132,-94 168,-173 -214,3 -230,83 -329,36 -225,-107 -287,-164 -552,-235 -52,-14 -106,-25 -162,-36 -201,-39 -164,16 -175,-135 -15,-200 -69,-421 -168,-589 -261,-441 -756,-582 -1169,-326 -148,92 -214,213 -280,375 -13,32 -52,123 -69,145 -95,-237 -181,-395 -357,-520 -401,-286 -879,2 -1100,430 -101,195 -160,445 -160,711 -6,14 -1,7 -15,15l-280 95c-276,108 -329,164 -545,266 -46,22 -95,40 -154,49 -78,12 -120,-7 -186,-7 9,17 13,30 27,49 27,37 68,11 103,112zm3537 -3561c30,3 8,4 21,7l65 9c82,13 227,38 295,7 40,-18 113,-59 167,-52 18,2 24,13 36,24 46,42 26,9 72,89 -14,34 -69,81 -100,103 -284,200 -830,216 -1165,227 18,-197 78,-115 101,-223 6,-29 11,-66 13,-96 92,9 192,21 272,-18 105,-51 206,7 249,15l-4 -66c-21,10 -11,14 -32,22 -2,-21 5,-32 10,-47zm-1539 287c-15,10 -26,-3 -37,-4 -30,-3 0,5 -34,8 -50,5 -466,-74 -531,-159 -112,-146 358,-251 477,-275 454,-92 829,-96 1282,-78 62,3 125,12 186,13 -18,33 -101,86 -139,106 -293,155 -539,78 -600,121 -64,45 24,97 -116,129 -157,36 -131,-5 -403,74 -69,20 -144,-13 -208,-16 12,7 12,13 24,24 10,10 19,15 30,25 7,6 9,10 16,13 31,16 30,-8 53,19z"/>
  <path class="fil1" d="M6309 8482c-589,-1 -1182,-229 -1598,-603 -236,-212 -397,-412 -575,-683 -152,-232 -318,-567 -437,-822 -32,-69 -73,-149 -98,-217 -275,-27 -597,-159 -729,-387 -28,-49 -26,-68 -45,-116l-8 151c-1,462 183,926 335,1288 154,368 354,714 598,1024l198 208c71,63 143,119 228,178 159,109 340,194 537,274 1281,518 2956,214 3921,-632 667,-585 995,-1499 995,-2452 0,-76 1,-202 -13,-273 -147,113 -166,212 -452,339 -48,21 -94,38 -137,59 -69,34 -51,12 -72,130 -88,495 -318,1036 -592,1400 -115,153 -230,294 -370,424 -441,409 -1012,712 -1686,711z"/>
  <path class="fil2" d="M3710 6162c52,186 294,649 386,805 74,125 160,250 243,353 46,57 86,111 135,163 24,26 114,134 148,154 25,-156 114,-306 210,-424 39,-47 109,-102 176,-140 392,-223 1023,-59 1416,-117 366,-54 700,-192 1099,-88 136,36 315,125 411,221 111,110 119,147 179,292 15,37 37,76 50,112 34,-23 222,-328 238,-355 73,-125 146,-245 210,-380 116,-246 254,-599 280,-907 -290,-3 -412,10 -716,-21 -224,-23 -442,-49 -659,-81 -422,-61 -924,-137 -1367,-116 -326,15 -938,142 -1272,212 -189,40 -1052,233 -1166,318z"/>
  <path class="fil3" d="M4658 9302c-22,-4 -10,-9 -66,-8 -22,0 -44,0 -66,0 -109,0 -809,-7 -845,5l-48 23c-4,1 -15,0 -23,-1 78,32 147,76 230,110 229,93 185,31 275,37l82 232c43,126 125,321 193,433 39,64 82,126 115,195 146,301 171,585 452,794 232,173 719,216 1012,76 275,-132 485,-377 893,-341 326,29 635,241 1020,230 311,-9 653,-164 853,-391 105,-119 191,-224 234,-392 35,-135 25,-261 -36,-385 -77,-153 -70,-56 -30,-225 30,-128 37,-292 40,-424 4,-208 -7,-379 49,-574 4,4 4,3 9,10 2,3 5,8 7,11 4,8 6,17 9,27 39,140 2,325 13,458 591,-186 1650,-1093 1804,-1621 -28,-23 -211,-88 -258,-104 -329,-114 -280,-112 -461,-440 -21,-38 -41,-82 -66,-115 -141,16 -275,58 -369,122 -118,81 -152,187 -216,273 -72,94 -143,179 -215,274 -45,58 -181,224 -211,272 -63,100 -114,211 -172,317 -85,157 -274,325 -410,443 -22,19 -40,39 -62,57l-190 174c-19,20 -44,30 -57,63 25,19 51,28 79,47 75,49 140,108 194,183 166,229 179,529 44,773 -281,510 -1036,792 -1605,876 -621,92 -1215,19 -1704,-215 -243,-116 -400,-250 -517,-479 -57,-111 -93,-260 -86,-409 9,-210 68,-265 107,-391z"/>
  <path class="fil3" d="M3452 4109l0 -4c-34,-101 -76,-75 -103,-112 -14,-19 -18,-32 -27,-49 66,1 108,19 186,7 59,-9 108,-27 154,-49 216,-102 269,-158 545,-266l280 -95c14,-8 9,-1 15,-15 0,-266 59,-516 160,-711 222,-428 699,-716 1100,-430 176,125 262,283 357,520 17,-22 55,-113 69,-145 67,-162 132,-284 280,-375 413,-256 908,-115 1169,326 99,168 154,389 168,589 11,150 -26,96 175,135 56,11 110,22 162,36 265,71 327,128 552,235 99,47 115,-33 329,-36 -36,79 -121,54 -168,173 27,20 83,36 166,103 50,40 144,147 194,205 53,62 169,178 196,221l8 8c267,66 308,360 300,596 -4,141 -39,269 -36,411 3,142 27,277 27,423 0,289 -36,535 -108,790 -65,231 -158,448 -222,673 76,-61 137,-181 193,-272 112,-181 172,-324 239,-536 111,-353 155,-686 145,-1096 -18,-691 -315,-1416 -627,-1853 -336,-471 -828,-868 -1359,-1122 -933,-447 -2070,-504 -3084,-97 -309,124 -558,268 -802,439 -136,95 -305,237 -424,351 -293,282 -529,597 -732,974 -323,600 -398,1421 -278,2097 86,486 367,1234 714,1611 15,16 24,25 39,39 20,18 28,28 50,37 -52,-113 -104,-221 -156,-331 -159,-338 -323,-643 -437,-1018 -127,-415 -174,-833 -91,-1275 14,-74 28,-127 55,-190 13,-30 28,-59 8,-94 -14,-25 -40,-48 -65,-61 53,-49 137,5 260,-280 68,-156 277,-449 421,-486z"/>
  <path class="fil1" d="M9420 4379l-8 -8c-79,15 -286,-119 -496,-15 -49,24 -87,60 -127,78 -5,-244 67,-112 371,-235 -13,-24 -147,-150 -176,-181 -42,-43 -122,-142 -212,-145 -139,-4 -581,258 -729,349 -75,46 -147,95 -221,143 -118,77 -328,217 -456,263 14,-132 502,-417 599,-472 185,-104 349,-185 524,-281l151 -81c0,0 10,-7 11,-7 7,-6 6,-5 9,-9 -62,-51 -306,-162 -389,-191 -128,-44 -322,-98 -472,-107 -77,415 -242,717 -641,807 -230,52 -348,5 -459,15 -19,431 -92,448 -454,639l24 596c44,8 102,5 148,7 353,20 648,66 998,116 628,90 1665,311 2075,-241 152,-204 227,-478 125,-737 -23,-60 -88,-168 -127,-193 -127,50 -343,85 -493,114 -171,33 -351,57 -521,93l-754 158c-80,18 -177,59 -237,2l-7 -7c273,-128 650,-171 981,-224 214,-35 881,-119 963,-245z"/>
  <path class="fil1" d="M5713 3922c-201,0 -251,-74 -250,-271 0,-192 18,-287 157,-356 114,-57 393,195 142,595 -20,32 -18,32 -49,32zm-2261 183l0 4c-12,126 -104,142 -224,302 -36,49 -71,102 -103,159 -26,45 -76,126 -91,174 56,-20 101,-47 168,-67 64,-19 135,-30 209,-25 135,9 229,97 255,211 136,-8 308,8 449,10 151,2 304,17 453,18l54 -6c17,-21 120,-3 130,-5 28,-5 25,-15 67,-16 305,-4 645,0 955,0 28,0 56,0 84,0 24,0 33,2 47,-6 24,-15 4,-3 18,-15 -10,-18 -3,-7 -3,-10l-8 -6c-1,-1 -7,-4 -8,-5 -3,-1 -14,-6 -17,-7 -16,-6 -21,-8 -37,-16 -25,-13 -41,-19 -63,-38 -114,-101 -108,-339 -122,-487 0,0 -126,38 -182,46 -377,52 -761,-104 -904,-469 -15,-37 -50,-138 -49,-180 181,159 124,295 387,463 191,122 440,162 682,63 182,-75 376,-240 438,-421 142,-418 80,-1025 -280,-1298 -187,-141 -422,-171 -655,-48 -177,93 -322,275 -404,455 -96,213 -122,468 -111,736 -27,4 -19,5 -32,9 -16,5 -16,4 -36,6l-211 40c-161,38 -346,98 -482,186 -60,39 -147,105 -177,161 27,24 361,133 422,154 249,88 1122,379 1211,531 -399,-71 -1378,-611 -1826,-601z"/>
  <path class="fil4" d="M7102 6929c-96,10 -174,16 -266,35 -84,17 -159,37 -242,56 -193,44 -330,63 -544,39 -396,-45 -704,-47 -1012,134 -178,105 -386,356 -283,559 23,46 111,116 153,151 78,66 273,179 372,230 134,70 284,128 434,168 724,193 1416,19 1905,-334 85,-62 250,-207 318,-279 124,-129 137,-268 21,-420 -186,-244 -526,-374 -856,-340z"/>
  <path class="fil5" d="M8992 9699c13,-11 20,-28 25,-44 4,-13 3,-4 5,-21l3 -55c1,-7 1,-9 4,-23l2648 0 0 -2728c-15,32 -21,101 -34,142 -60,196 -201,386 -384,481 -184,95 -293,63 -412,280 -42,77 -83,147 -130,216 -131,192 -313,404 -483,561 -329,304 -606,517 -1023,706 -175,79 -169,69 -186,160 -21,108 -33,210 -32,326z"/>
  <path class="fil1" d="M4568 4892c132,15 502,27 578,94 -169,47 -685,13 -886,0 -287,-18 -592,-41 -878,-46 -74,-1 -146,-6 -221,-6l-170 2c-27,4 -24,5 -36,25 -222,376 -111,744 196,968 204,149 480,145 760,89 253,-51 492,-124 733,-191 254,-70 488,-120 763,-161 246,-37 564,-75 778,-152l-13 -573c-36,-20 -216,-108 -253,-106 1,4 -6,-7 3,10 -14,12 6,0 -18,15 -14,8 -23,6 -47,6 -28,0 -56,0 -84,0 -310,0 -650,-5 -955,0 -41,1 -39,11 -67,16 -9,2 -113,-16 -130,5l-54 6z"/>
  <path class="fil3" d="M3610 9320c9,1 19,1 23,1l48 -23c35,-12 736,-5 845,-5 22,0 44,0 66,0 56,0 44,4 66,8 5,-4 85,-130 88,-139l-287 -195c-126,-85 -302,-215 -400,-334 -85,-104 -199,-220 -285,-323l-301 -313c-68,-65 -86,-81 -140,-157l-78 -113c-147,-201 -148,-249 -341,-393 -29,-21 -119,-89 -146,-99 -28,22 -28,19 -41,56 -9,25 -20,42 -28,67 -39,125 -111,299 -178,401 -144,219 -291,147 -467,302 46,109 222,288 319,380 190,179 570,458 796,612 161,110 273,171 442,267z"/>
  <path class="fil1" d="M6830 3657c-9,77 -28,150 -68,196 -36,41 -105,90 -186,56 -164,-70 -224,-497 19,-617 39,-19 59,-31 93,-8 134,88 162,211 142,373zm36 -1326c-288,27 -438,141 -552,323 -118,188 -156,468 -131,735 11,117 59,429 145,506 50,45 188,36 265,170 33,58 54,89 97,124 91,72 221,87 358,57 698,-151 922,-1042 414,-1646 -106,-126 -325,-294 -596,-269z"/>
  <path class="fil1" d="M7001 9320c-6,16 47,60 75,90 28,31 51,61 74,99 69,115 42,155 28,287 189,18 382,-53 540,-101 157,-48 339,-126 519,-133 -40,703 -901,1000 -1488,1079 -380,51 -798,-10 -1103,-141 -270,-117 -573,-332 -655,-634 156,-45 243,-36 412,-24 78,6 372,44 424,26 22,-48 -2,-79 -2,-127 1,-119 135,-264 135,-313 -724,-13 -917,-206 -1119,-214 -35,-1 -31,4 -51,28 -11,14 -25,32 -36,48 -21,29 -47,69 -64,103 -40,86 -66,150 -78,257 -22,207 56,381 146,513 618,904 2965,745 3591,-211 154,-236 191,-525 27,-752 -56,-78 -94,-113 -166,-168 -33,-26 -64,-43 -102,-65 -42,-25 -39,-24 -118,13 -217,100 -482,229 -711,291 -99,27 -176,34 -280,50z"/>
  <path class="fil1" d="M10820 6023c-219,25 -388,125 -500,237 -438,443 -105,1272 582,1220 384,-29 728,-350 693,-776 -35,-421 -400,-725 -775,-682z"/>
  <path class="fil1" d="M1858 6513c-376,30 -705,361 -677,782 14,211 123,403 233,494 141,117 309,190 559,168 395,-36 712,-348 662,-781 -33,-286 -219,-515 -476,-616 -92,-36 -189,-57 -302,-48z"/>
  <path class="fil1" d="M8537 11860l42 10c1,0 3,1 4,1l57 -4c2,0 3,-1 5,-1l21 -4c19,0 16,3 25,4 21,2 16,-7 55,-4 -4,-4 12,-24 -24,-9 27,-8 13,-5 22,-12l-8 -13c-57,7 -117,22 -176,11 129,-81 289,-155 398,-247 275,-233 366,-581 291,-949 -35,-173 -73,-223 -125,-358 -11,-28 -32,-90 -47,-112 -90,214 -27,294 -249,533 -100,108 -270,260 -436,340 -340,164 -611,125 -975,34l-303 -85c6,57 57,161 84,203 38,60 88,113 132,154 98,91 191,182 300,273 281,235 538,187 921,219l-15 19z"/>
  <path class="fil1" d="M4594 10859c-18,136 -29,384 -19,511 14,180 60,311 131,446 108,208 408,426 751,406 339,-20 586,-262 719,-443 80,-108 152,-229 212,-367 38,-87 131,-335 135,-440 -319,157 -546,411 -1024,375 -253,-19 -531,-110 -698,-282 -50,-52 -167,-175 -195,-240l-11 34z"/>
  <path class="fil1" d="M5873 9956c-108,-5 -728,-44 -778,-34 48,65 49,86 119,162 139,153 303,278 512,358 309,119 643,161 1014,117 481,-57 1090,-279 1337,-697 29,-49 73,-144 80,-209l-354 96c-144,41 -394,104 -527,153 -254,93 -5,86 -298,381 -73,74 -154,132 -284,169 -131,37 -274,29 -396,-14 -222,-78 -355,-245 -424,-483z"/>
  <path class="fil1" d="M5451 830c-23,-26 -22,-2 -53,-19 -7,-4 -9,-7 -16,-13 -10,-9 -20,-15 -30,-25 -11,-11 -12,-17 -24,-24 64,3 138,36 208,16 271,-80 246,-39 403,-74 140,-32 52,-84 116,-129 62,-44 307,34 600,-121 38,-20 122,-73 139,-106 -61,-1 -124,-10 -186,-13 -453,-18 -828,-14 -1282,78 -119,24 -590,129 -477,275 65,84 481,164 531,159 34,-3 4,-12 34,-8 12,1 23,14 37,4z"/>
  <path class="fil2" d="M6303 4186c0,29 0,57 0,86 0,41 7,51 -16,73 -24,24 -65,60 -100,79 -42,22 -90,25 -131,0 -23,-14 -79,-68 -91,-88 -43,-74 34,-425 338,-150zm-135 -225c-229,31 -425,205 -413,461 10,228 208,433 456,407 236,-25 440,-191 406,-459 -26,-214 -207,-442 -449,-409z"/>
  <path class="fil6" d="M6502 10393c-37,-412 -146,-289 -190,-399 -16,-39 -27,-123 -27,-171 78,-33 116,-49 220,-40 90,8 136,38 205,63 -16,202 -92,191 -122,228 -43,53 -12,240 -5,313 70,-11 151,-49 210,-78 202,-101 303,-319 295,-566 -280,-51 -836,-25 -1067,80 -57,26 -79,31 -75,71 4,38 17,90 29,122 29,78 63,126 117,181 106,108 256,178 410,197z"/>
  <path class="fil1" d="M6989 544c-6,15 -12,26 -10,47 21,-8 11,-12 32,-22l4 66c-43,-8 -144,-66 -249,-15 -80,39 -180,27 -272,18 -2,31 -7,67 -13,96 -23,109 -83,27 -101,223 335,-11 881,-27 1165,-227 31,-22 86,-69 100,-103 -46,-80 -26,-47 -72,-89 -12,-11 -18,-21 -36,-24 -54,-8 -127,33 -167,52 -68,31 -213,6 -295,-7l-65 -9c-12,-3 10,-4 -21,-7z"/>
  <path class="fil7" d="M5713 3922c31,0 28,1 49,-32 251,-400 -28,-652 -142,-595 -139,69 -156,164 -157,356 0,197 49,271 250,271z"/>
  <path class="fil7" d="M6830 3657c20,-161 -9,-285 -142,-373 -34,-22 -54,-11 -93,8 -242,120 -183,547 -19,617 81,35 150,-14 186,-56 39,-46 59,-120 68,-196z"/>
  <path class="fil1" d="M6303 4186c-304,-275 -381,76 -338,150 12,20 68,74 91,88 41,25 89,22 131,0 35,-19 76,-55 100,-79 23,-22 16,-33 16,-73 0,-29 0,-57 0,-86z"/>
  <path class="fil8" d="M3057 4851l591 13c-48,-37 -218,-122 -286,-132 -70,-10 -124,5 -177,31 -46,22 -102,57 -128,88z"/>
  <path class="fil8" d="M2745 7119c40,32 134,95 185,116l-93 -161c-6,9 -1,0 -5,17 -1,3 -2,15 -3,16l-21 2c-12,0 -32,-7 -47,-1l-15 11z"/>
 </g>
</svg>
